<svg width="37" height="37" viewBox="0 0 37 37" fill="none" xmlns="http://www.w3.org/2000/svg">
<rect x="0.5" y="0.5" width="36" height="36" rx="18" fill="white"/>
<path d="M25.8343 9.8913H11.1625C10.4597 9.8913 9.89136 10.4462 9.89136 11.1322V25.8645C9.89136 26.5505 10.4597 27.1087 11.1625 27.1087H25.8343C26.5371 27.1087 27.1087 26.5505 27.1087 25.8678V11.1322C27.1087 10.4462 26.5371 9.8913 25.8343 9.8913ZM14.9994 24.5631H12.4437V16.3445H14.9994V24.5631ZM13.7216 15.2247C12.901 15.2247 12.2386 14.5622 12.2386 13.745C12.2386 12.9279 12.901 12.2654 13.7216 12.2654C14.5387 12.2654 15.2012 12.9279 15.2012 13.745C15.2012 14.5588 14.5387 15.2247 13.7216 15.2247ZM24.5631 24.5631H22.0108V20.5681C22.0108 19.6164 21.994 18.389 20.6825 18.389C19.3542 18.389 19.1524 19.4281 19.1524 20.5008V24.5631H16.6035V16.3445H19.0515V17.4676H19.0852C19.4248 16.822 20.2588 16.1393 21.4996 16.1393C24.0856 16.1393 24.5631 17.8409 24.5631 20.0536V24.5631V24.5631Z" fill="#151515"/>
</svg>
