<svg width="37" height="37" viewBox="0 0 37 37" fill="none" xmlns="http://www.w3.org/2000/svg">
<rect x="0.5" y="0.5" width="36" height="36" rx="18" fill="white"/>
<path d="M28.2826 12.4321C27.5631 12.7509 26.7902 12.9663 25.9776 13.0637C26.8066 12.5674 27.4425 11.7798 27.7424 10.8423C26.9668 11.3024 26.1078 11.6368 25.1935 11.816C24.4611 11.037 23.4185 10.5493 22.2638 10.5493C20.0476 10.5493 18.2501 12.3468 18.2501 14.5647C18.2501 14.8784 18.2863 15.1834 18.3535 15.4781C15.0163 15.3101 12.0598 13.7117 10.0797 11.2835C9.73505 11.878 9.53686 12.5674 9.53686 13.3015C9.53686 14.694 10.246 15.9236 11.3223 16.6431C10.6639 16.6215 10.0453 16.4415 9.50412 16.1407V16.1924C9.50412 18.1372 10.8871 19.7598 12.7242 20.1286C12.3864 20.2199 12.0323 20.2682 11.6669 20.2682C11.4084 20.2682 11.156 20.244 10.9112 20.1975C11.4222 21.7916 12.9043 22.9531 14.6612 22.9842C13.2869 24.0613 11.5558 24.7032 9.67559 24.7032C9.3516 24.7032 9.03192 24.6843 8.71741 24.6472C10.4942 25.7872 12.6036 26.4507 14.8698 26.4507C22.2543 26.4507 26.2913 20.3345 26.2913 15.03C26.2913 14.8577 26.287 14.6836 26.2792 14.5113C27.0634 13.9443 27.7441 13.2386 28.2809 12.4347L28.2826 12.4321Z" fill="#151515"/>
</svg>
