<svg width="37" height="37" viewBox="0 0 37 37" fill="none" xmlns="http://www.w3.org/2000/svg">
<rect x="0.5" y="0.5" width="36" height="36" rx="18" fill="white"/>
<g clip-path="url(#clip0_2016_17)">
<path fill-rule="evenodd" clip-rule="evenodd" d="M10.6265 22.4414C10.0307 21.2558 9.69556 19.9163 9.69556 18.5C9.69556 17.0837 10.0307 15.7442 10.6265 14.5586C12.0733 11.6755 15.0574 9.69565 18.4999 9.69565C21.9424 9.69565 24.9265 11.6755 26.3733 14.5586C26.9691 15.7442 27.3043 17.0837 27.3043 18.5C27.3043 19.9163 26.9691 21.2558 26.3733 22.4414C24.9265 25.3245 21.9424 27.3043 18.4999 27.3043C15.0574 27.3043 12.0733 25.3245 10.6265 22.4414ZM11.4482 15.5811C11.0755 16.4803 10.8695 17.4664 10.8695 18.5C10.8695 19.5336 11.0755 20.5197 11.4482 21.4189C12.4067 21.0474 13.5366 20.7492 14.7839 20.5485C14.7193 19.8923 14.6847 19.2061 14.6847 18.5C14.6847 17.7939 14.7193 17.1077 14.7839 16.4515C13.5366 16.2508 12.4067 15.9526 11.4482 15.5811ZM25.0157 14.5298C24.0443 12.9398 22.5076 11.733 20.6863 11.1883C20.7679 11.3151 20.8471 11.4495 20.9234 11.5915C21.4241 12.5265 21.8244 13.8038 22.0651 15.2882C23.1615 15.1103 24.1599 14.8515 25.0157 14.5298ZM16.3135 11.1883C14.4922 11.733 12.9555 12.9398 11.9841 14.5298C12.8399 14.8521 13.8383 15.1103 14.9347 15.2882C15.1754 13.8038 15.5757 12.5265 16.0764 11.5915C16.1527 11.4495 16.2319 11.3151 16.3135 11.1883ZM25.5516 21.4189C25.9243 20.5197 26.1303 19.5336 26.1303 18.5C26.1303 17.4664 25.9243 16.4803 25.5516 15.5811C24.5931 15.9526 23.4632 16.2508 22.2159 16.4515C22.2805 17.1077 22.3151 17.7939 22.3151 18.5C22.3151 19.2061 22.2805 19.8923 22.2159 20.5485C23.4632 20.7492 24.5931 21.0474 25.5516 21.4189ZM11.9841 22.4702C12.9555 24.0602 14.4922 25.267 16.3135 25.8117C16.2319 25.6849 16.1527 25.5505 16.0764 25.4085C15.5757 24.4735 15.1754 23.1962 14.9347 21.7118C13.8383 21.8897 12.8399 22.1485 11.9841 22.4702ZM20.6863 25.8117C22.5076 25.267 24.0443 24.0602 25.0157 22.4702C24.1599 22.1485 23.1615 21.8897 22.0651 21.7118C21.8244 23.1962 21.4241 24.4735 20.9234 25.4085C20.8471 25.5505 20.7679 25.6849 20.6863 25.8117ZM18.4999 10.8696C18.2739 10.8696 18.0626 10.977 17.8595 11.1495C17.5872 11.3808 17.3383 11.7218 17.1112 12.1462C16.6627 12.9832 16.3106 14.1213 16.0957 15.4425C16.8646 15.523 17.6699 15.5652 18.4999 15.5652C19.3299 15.5652 20.1352 15.5224 20.9041 15.4425C20.6893 14.1213 20.3371 12.9832 19.8886 12.1462C19.6615 11.7218 19.4126 11.3808 19.1403 11.1495C18.9372 10.977 18.7259 10.8696 18.4999 10.8696ZM18.4999 26.1304C18.7259 26.1304 18.9372 26.023 19.1403 25.8505C19.4126 25.6192 19.6615 25.2782 19.8886 24.8538C20.3371 24.0168 20.6893 22.8787 20.9041 21.5575C20.1352 21.4776 19.3299 21.4348 18.4999 21.4348C17.6699 21.4348 16.8646 21.4776 16.0957 21.5575C16.3106 22.8787 16.6627 24.0168 17.1112 24.8538C17.3383 25.2782 17.5872 25.6192 17.8595 25.8505C18.0626 26.023 18.2739 26.1304 18.4999 26.1304ZM21.0532 20.3941C21.1107 19.7872 21.1412 19.1527 21.1412 18.5C21.1412 17.8473 21.1107 17.2128 21.0532 16.6059C20.2367 16.6928 19.3809 16.7391 18.4999 16.7391C17.6189 16.7391 16.7631 16.6928 15.9466 16.6059C15.8891 17.2128 15.8586 17.8473 15.8586 18.5C15.8586 19.1527 15.8891 19.7872 15.9466 20.3941C16.7631 20.3072 17.6189 20.2609 18.4999 20.2609C19.3809 20.2609 20.2367 20.3072 21.0532 20.3941Z" fill="#151515"/>
</g>
<defs>
<clipPath id="clip0_2016_17">
<rect width="18.7826" height="18.7826" fill="white" transform="translate(9.10864 9.1087)"/>
</clipPath>
</defs>
</svg>
