<svg width="24" height="24" viewBox="0 0 24 24" fill="none" xmlns="http://www.w3.org/2000/svg">
<path d="M23.6412 14.9029C22.0385 21.3315 15.5274 25.2438 9.09796 23.6407C2.67126 22.0381 -1.24108 15.5265 0.362312 9.09837C1.96429 2.66903 8.47546 -1.24361 14.9029 0.359081C21.3318 1.96177 25.2439 8.47405 23.641 14.903L23.6412 14.9029H23.6412Z" fill="#F3BA2F"/>
<path fill-rule="evenodd" clip-rule="evenodd" d="M12.0029 7.616L8.89557 10.7233L8.89563 10.7232L7.0877 8.9152L12.0029 4L16.9197 8.91667L15.1117 10.7247L12.0029 7.616ZM5.81099 10.1916L4.00293 11.9999L5.81087 13.8076L7.61893 11.9995L5.81099 10.1916ZM8.89559 13.2769L12.0029 16.384L15.1117 13.2754L16.9206 15.0824L16.9197 15.0834L12.0029 20L7.08772 15.0848L7.08516 15.0822L8.89559 13.2769ZM18.195 10.1928L16.3869 12.0008L18.1949 13.8088L20.0029 12.0007L18.195 10.1928Z" fill="white"/>
<path d="M13.8368 11.9987H13.8376L12.0031 10.1641L10.6471 11.5196L10.4913 11.6755L10.17 11.9968L10.1675 11.9993L10.17 12.002L12.0031 13.8352L13.8377 12.0006L13.8386 11.9996L13.8369 11.9987" fill="white"/>
</svg>
