<svg width="16" height="16" viewBox="0 0 16 16" fill="none" xmlns="http://www.w3.org/2000/svg">
<rect width="16" height="16" rx="8" fill="#0F62FE"/>
<path d="M8.05256 4.72727L7.96023 9.90838H6.97656L6.88423 4.72727H8.05256ZM7.47017 12.0675C7.27367 12.0675 7.10559 11.9988 6.96591 11.8615C6.82623 11.7218 6.75758 11.5537 6.75994 11.3572C6.75758 11.1631 6.82623 10.9974 6.96591 10.8601C7.10559 10.7204 7.27367 10.6506 7.47017 10.6506C7.66193 10.6506 7.82765 10.7204 7.96733 10.8601C8.10701 10.9974 8.17803 11.1631 8.1804 11.3572C8.17803 11.4875 8.1437 11.607 8.07741 11.7159C8.01349 11.8224 7.92827 11.9077 7.82173 11.9716C7.7152 12.0355 7.59801 12.0675 7.47017 12.0675Z" fill="white"/>
</svg>
