<svg width="24" height="25" viewBox="0 0 24 25" fill="none" xmlns="http://www.w3.org/2000/svg">
<g id="Icon pack">
<path id="Vector" d="M17.9998 6.49982C17.8123 6.31235 17.558 6.20703 17.2928 6.20703C17.0277 6.20703 16.7733 6.31235 16.5858 6.49982L11.9998 11.0858L7.41382 6.49982C7.22629 6.31235 6.97198 6.20703 6.70682 6.20703C6.44165 6.20703 6.18735 6.31235 5.99982 6.49982C5.81235 6.68735 5.70703 6.94165 5.70703 7.20682C5.70703 7.47198 5.81235 7.72629 5.99982 7.91382L10.5858 12.4998L5.99982 17.0858C5.81235 17.2733 5.70703 17.5277 5.70703 17.7928C5.70703 18.058 5.81235 18.3123 5.99982 18.4998C6.18735 18.6873 6.44165 18.7926 6.70682 18.7926C6.97198 18.7926 7.22629 18.6873 7.41382 18.4998L11.9998 13.9138L16.5858 18.4998C16.7733 18.6873 17.0277 18.7926 17.2928 18.7926C17.558 18.7926 17.8123 18.6873 17.9998 18.4998C18.1873 18.3123 18.2926 18.058 18.2926 17.7928C18.2926 17.5277 18.1873 17.2733 17.9998 17.0858L13.4138 12.4998L17.9998 7.91382C18.1873 7.72629 18.2926 7.47198 18.2926 7.20682C18.2926 6.94165 18.1873 6.68735 17.9998 6.49982Z" fill="#E1E7EF"/>
</g>
</svg>
