<svg width="18" height="13" viewBox="0 0 18 13" fill="none" xmlns="http://www.w3.org/2000/svg">
<path d="M9.92236 1.6875H0V3.5625H9.92236C10.2998 4.54926 11.2556 5.25 12.375 5.25C13.4944 5.25 14.4502 4.54926 14.8276 3.5625H18V1.6875H14.8276C14.4502 0.700736 13.4944 0 12.375 0C11.2556 0 10.2998 0.700736 9.92236 1.6875Z" fill="white"/>
<path d="M8.07764 9.18744H18V11.0624H8.07764C7.70023 12.0492 6.74445 12.7499 5.625 12.7499C4.50555 12.7499 3.54977 12.0492 3.17236 11.0624H0V9.18744H3.17236C3.54977 8.20067 4.50555 7.49994 5.625 7.49994C6.74445 7.49994 7.70023 8.20067 8.07764 9.18744Z" fill="white"/>
</svg>
