<svg width="29" height="29" viewBox="0 0 29 29" fill="none" xmlns="http://www.w3.org/2000/svg">
<g id="Group">
<path id="Vector" d="M1 24.625C1 22.8348 1.71116 21.1179 2.97703 19.852C4.2429 18.5862 5.95979 17.875 7.75 17.875H21.25C23.0402 17.875 24.7571 18.5862 26.023 19.852C27.2888 21.1179 28 22.8348 28 24.625C28 25.5201 27.6444 26.3785 27.0115 27.0115C26.3785 27.6444 25.5201 28 24.625 28H4.375C3.47989 28 2.62145 27.6444 1.98851 27.0115C1.35558 26.3785 1 25.5201 1 24.625Z" stroke="#F8FAFC" stroke-width="2" stroke-linejoin="round"/>
<path id="Vector_2" d="M14.5 11.125C17.2959 11.125 19.5625 8.85844 19.5625 6.0625C19.5625 3.26656 17.2959 1 14.5 1C11.7041 1 9.4375 3.26656 9.4375 6.0625C9.4375 8.85844 11.7041 11.125 14.5 11.125Z" stroke="#F8FAFC" stroke-width="2"/>
</g>
</svg>
