<svg width="48" height="41" viewBox="0 0 48 41" fill="none" xmlns="http://www.w3.org/2000/svg">
<path d="M16.6938 20.8555L13.6848 24.9373L12.7099 26.2449L1.90168 40.8555H0L11.7591 24.9487L12.722 23.6411L14.7921 20.8555L12.722 18.0698L11.7591 16.7622L0 0.855469H1.90168L12.7099 15.466L13.6848 16.785L16.6938 20.8555Z" fill="white"/>
<path d="M23.9993 10.9862L16.6935 20.8555L13.6845 16.785L12.7096 15.466L1.90137 0.855469H16.513L20.0154 5.5968L20.9783 6.90436L23.9993 10.9862Z" fill="#7F8EA3"/>
<path d="M23.9993 30.7228L20.9783 34.8046L20.0154 36.1122L16.513 40.8535H1.90137L12.7096 26.2429L13.6845 24.9354L16.6935 20.8535L23.9993 30.7228Z" fill="#7F8EA3"/>
<path d="M47.9998 0.855469H31.4865L24.0001 10.9862L16.6943 20.8555L24.0001 30.7247L31.4865 40.8555H47.9998L33.2076 20.8555L47.9998 0.855469Z" fill="white"/>
</svg>
