<svg width="28" height="28" viewBox="0 0 28 28" fill="none" xmlns="http://www.w3.org/2000/svg">
<g id="PieChartFill" clip-path="url(#clip0_454_112)">
<path id="Vector" d="M27.9735 14.8741H14.362L4.73697 24.4991C6.70179 26.2326 9.11363 27.3798 11.6982 27.8105C14.2827 28.2411 16.9363 27.9377 19.357 26.935C21.7777 25.9322 23.8684 24.2702 25.3913 22.1381C26.9142 20.0059 27.81 17.4892 27.9735 14.8741ZM3.49972 23.2601C1.76628 21.2953 0.619015 18.8835 0.188407 16.2989C-0.242201 13.7144 0.0611326 11.0609 1.06391 8.64015C2.06668 6.21946 3.72865 4.12875 5.86078 2.60581C7.99292 1.08287 10.5096 0.18884 13.1247 0.0253906V13.6369L3.49972 23.2601ZM14.8747 0.0253906V13.1241H27.9735C27.7605 9.71989 26.3121 6.51047 23.9003 4.09859C21.4884 1.68672 18.279 0.238315 14.8747 0.0253906Z" fill="white"/>
</g>
<defs>
<clipPath id="clip0_454_112">
<rect width="28" height="28" fill="white"/>
</clipPath>
</defs>
</svg>
