<svg width="22" height="22" viewBox="0 0 22 22" fill="none" xmlns="http://www.w3.org/2000/svg">
<path fill-rule="evenodd" clip-rule="evenodd" d="M11 0.644531C11.2321 0.644531 11.4546 0.736719 11.6187 0.900813C11.7828 1.06491 11.875 1.28747 11.875 1.51953V10.2695H20.625C20.8571 10.2695 21.0796 10.3617 21.2437 10.5258C21.4078 10.6899 21.5 10.9125 21.5 11.1445C21.5 11.3766 21.4078 11.5992 21.2437 11.7633C21.0796 11.9273 20.8571 12.0195 20.625 12.0195H11.875V20.7695C11.875 21.0016 11.7828 21.2242 11.6187 21.3883C11.4546 21.5523 11.2321 21.6445 11 21.6445C10.7679 21.6445 10.5454 21.5523 10.3813 21.3883C10.2172 21.2242 10.125 21.0016 10.125 20.7695V12.0195H1.375C1.14294 12.0195 0.920376 11.9273 0.756282 11.7633C0.592187 11.5992 0.5 11.3766 0.5 11.1445C0.5 10.9125 0.592187 10.6899 0.756282 10.5258C0.920376 10.3617 1.14294 10.2695 1.375 10.2695H10.125V1.51953C10.125 1.28747 10.2172 1.06491 10.3813 0.900813C10.5454 0.736719 10.7679 0.644531 11 0.644531Z" fill="white"/>
</svg>
