<svg width="207" height="207" viewBox="0 0 207 207" fill="none" xmlns="http://www.w3.org/2000/svg">
<path fill-rule="evenodd" clip-rule="evenodd" d="M87 0H0V87H87V0ZM60 27H27V60H60V27Z" fill="url(#paint0_linear_203_5165)"/>
<path fill-rule="evenodd" clip-rule="evenodd" d="M87 120H0V207H87V120ZM60 147H27V180H60V147Z" fill="url(#paint1_linear_203_5165)"/>
<path fill-rule="evenodd" clip-rule="evenodd" d="M207 0H120V87H207V0ZM180 27H147V60H180V27Z" fill="url(#paint2_linear_203_5165)"/>
<path d="M162.025 120H120V207H149.492V163.5H162.025V177.508H207V120H191.517V134.008H162.025V120Z" fill="url(#paint3_linear_203_5165)"/>
<rect x="162" y="192" width="15" height="15" fill="url(#paint4_linear_203_5165)"/>
<rect x="192" y="192" width="15" height="15" fill="url(#paint5_linear_203_5165)"/>
<defs>
<linearGradient id="paint0_linear_203_5165" x1="0" y1="43.5" x2="87" y2="43.5" gradientUnits="userSpaceOnUse">
<stop stop-color="white"/>
<stop offset="0.795" stop-color="white" stop-opacity="0.8"/>
</linearGradient>
<linearGradient id="paint1_linear_203_5165" x1="0" y1="163.5" x2="87" y2="163.5" gradientUnits="userSpaceOnUse">
<stop stop-color="white"/>
<stop offset="0.795" stop-color="white" stop-opacity="0.8"/>
</linearGradient>
<linearGradient id="paint2_linear_203_5165" x1="120" y1="43.5" x2="207" y2="43.5" gradientUnits="userSpaceOnUse">
<stop stop-color="white"/>
<stop offset="0.795" stop-color="white" stop-opacity="0.8"/>
</linearGradient>
<linearGradient id="paint3_linear_203_5165" x1="120" y1="163.5" x2="207" y2="163.5" gradientUnits="userSpaceOnUse">
<stop stop-color="white"/>
<stop offset="0.795" stop-color="white" stop-opacity="0.8"/>
</linearGradient>
<linearGradient id="paint4_linear_203_5165" x1="162" y1="199.5" x2="177" y2="199.5" gradientUnits="userSpaceOnUse">
<stop stop-color="white"/>
<stop offset="0.795" stop-color="white" stop-opacity="0.8"/>
</linearGradient>
<linearGradient id="paint5_linear_203_5165" x1="192" y1="199.5" x2="207" y2="199.5" gradientUnits="userSpaceOnUse">
<stop stop-color="white"/>
<stop offset="0.795" stop-color="white" stop-opacity="0.8"/>
</linearGradient>
</defs>
</svg>
