<svg width="94" height="34" viewBox="0 0 94 34" fill="none" xmlns="http://www.w3.org/2000/svg">
<path d="M0.509766 2C0.509766 0.895432 1.4052 0 2.50977 0H47.1267V33.1768H2.50976C1.40519 33.1768 0.509766 32.2813 0.509766 31.1768V2Z" fill="#7F8EA3"/>
<path d="M47.8666 0.739632H91.7439C92.44 0.739632 93.0043 1.30392 93.0043 2V31.1768C93.0043 31.8729 92.44 32.4371 91.7439 32.4371H47.8666V0.739632Z" stroke="#7F8EA3" stroke-width="1.47926"/>
<path d="M12.834 21.4517L18.8263 15.4594C19.6074 14.6784 20.8737 14.6784 21.6548 15.4594L24.3959 18.2005C25.1769 18.9816 26.4432 18.9816 27.2243 18.2005L33.7002 11.7246" stroke="#030711" stroke-width="4.43779"/>
<path fill-rule="evenodd" clip-rule="evenodd" d="M71.7578 14.2037C72.2559 14.4804 72.6582 14.9085 72.9025 15.4259H79.4701C78.9544 11.3788 75.7827 8.16138 71.7578 7.57617V14.2037Z" fill="#7F8EA3"/>
<path d="M72.9025 15.4259L72.2337 15.7417L72.4339 16.1655H72.9025V15.4259ZM71.7578 14.2037H71.0182V14.639L71.3987 14.8503L71.7578 14.2037ZM79.4701 15.4259V16.1655H80.31L80.2038 15.3324L79.4701 15.4259ZM71.7578 7.57617L71.8642 6.84424L71.0182 6.72122V7.57617H71.7578ZM73.5713 15.11C73.2606 14.4521 72.7497 13.9086 72.117 13.5571L71.3987 14.8503C71.762 15.0521 72.0557 15.3649 72.2337 15.7417L73.5713 15.11ZM79.4701 14.6862H72.9025V16.1655H79.4701V14.6862ZM80.2038 15.3324C79.646 10.9552 76.2173 7.47716 71.8642 6.84424L71.6514 8.30811C75.3481 8.8456 78.2628 11.8025 78.7365 15.5194L80.2038 15.3324ZM72.4974 14.2037V7.57617H71.0182V14.2037H72.4974Z" fill="#030711"/>
<path fill-rule="evenodd" clip-rule="evenodd" d="M72.8225 17.9078C72.3577 18.7469 71.4631 19.3151 70.4359 19.3151C68.9302 19.3151 67.7096 18.0944 67.7096 16.5887C67.7096 15.529 68.3142 14.6105 69.1973 14.1593V7.56445C64.7531 8.16875 61.3281 11.9788 61.3281 16.5887C61.3281 21.6188 65.4058 25.6965 70.4359 25.6965C75.018 25.6965 78.8098 22.3128 79.4489 17.9078H72.8225Z" fill="#7F8EA3"/>
</svg>
