<svg width="94" height="34" viewBox="0 0 94 34" fill="none" xmlns="http://www.w3.org/2000/svg">
<path d="M1.23963 2C1.23963 1.30392 1.80392 0.739632 2.5 0.739632H46.3773V32.4371H2.5C1.80392 32.4371 1.23963 31.8729 1.23963 31.1768V2Z" stroke="#7F8EA3" stroke-width="1.47926"/>
<path d="M47.1172 0H91.7341C92.8387 0 93.7341 0.895431 93.7341 2V31.1768C93.7341 32.2813 92.8387 33.1768 91.7341 33.1768H47.1172V0Z" fill="#7F8EA3"/>
<path d="M12.8242 21.4517L18.8166 15.4594C19.5976 14.6784 20.8639 14.6784 21.645 15.4594L24.3861 18.2005C25.1671 18.9816 26.4335 18.9816 27.2145 18.2005L33.6904 11.7246" stroke="#7F8EA3" stroke-width="4.43779"/>
<path fill-rule="evenodd" clip-rule="evenodd" d="M71.748 14.2037C72.2461 14.4804 72.6484 14.9085 72.8928 15.4259H79.4604C78.9446 11.3788 75.773 8.16138 71.748 7.57617V14.2037Z" fill="#030711"/>
<path d="M72.8928 15.4259L72.224 15.7417L72.4241 16.1655H72.8928V15.4259ZM71.748 14.2037H71.0084V14.639L71.3889 14.8503L71.748 14.2037ZM79.4604 15.4259V16.1655H80.3003L80.1941 15.3324L79.4604 15.4259ZM71.748 7.57617L71.8545 6.84424L71.0084 6.72122V7.57617H71.748ZM73.5616 15.11C73.2509 14.4521 72.74 13.9086 72.1072 13.5571L71.3889 14.8503C71.7522 15.0521 72.046 15.3649 72.224 15.7417L73.5616 15.11ZM79.4604 14.6862H72.8928V16.1655H79.4604V14.6862ZM80.1941 15.3324C79.6363 10.9552 76.2075 7.47716 71.8545 6.84424L71.6416 8.30811C75.3384 8.8456 78.253 11.8025 78.7267 15.5194L80.1941 15.3324ZM72.4877 14.2037V7.57617H71.0084V14.2037H72.4877Z" fill="#7F8EA3"/>
<path fill-rule="evenodd" clip-rule="evenodd" d="M72.8127 17.9078C72.3479 18.7469 71.4534 19.3151 70.4261 19.3151C68.9204 19.3151 67.6998 18.0944 67.6998 16.5887C67.6998 15.529 68.3044 14.6105 69.1875 14.1593V7.56445C64.7433 8.16875 61.3184 11.9788 61.3184 16.5887C61.3184 21.6188 65.3961 25.6965 70.4261 25.6965C75.0082 25.6965 78.8 22.3128 79.4391 17.9078H72.8127Z" fill="#030711"/>
</svg>
