<svg width="21" height="21" viewBox="0 0 21 21" fill="none" xmlns="http://www.w3.org/2000/svg">
<path d="M13.0961 3.9048C12.4946 3.29211 11.7776 2.80467 10.9866 2.47064C10.1956 2.1366 9.34633 1.96258 8.48772 1.95863C7.62911 1.95469 6.77823 2.12089 5.98421 2.44765C5.1902 2.77441 4.46879 3.25524 3.86166 3.86237C3.25452 4.46951 2.77369 5.19091 2.44694 5.98493C2.12018 6.77894 1.95398 7.62982 1.95792 8.48843C1.96187 9.34704 2.13588 10.1964 2.46992 10.9873C2.80396 11.7783 3.2914 12.4953 3.90409 13.0968C5.12684 14.2973 6.77418 14.9664 8.48772 14.9585C10.2013 14.9506 11.8424 14.2664 13.054 13.0548C14.2657 11.8431 14.9499 10.202 14.9578 8.48843C14.9657 6.77489 14.2966 5.12756 13.0961 3.9048ZM2.49009 2.4908C4.02291 0.958364 6.08324 0.0693774 8.24977 0.00563343C10.4163 -0.0581105 12.5253 0.708204 14.1456 2.14787C15.7659 3.58754 16.7749 5.59179 16.9665 7.75078C17.158 9.90976 16.5176 12.0604 15.1761 13.7628L20.5211 19.1078L19.1071 20.5218L13.7621 15.1768C12.0591 16.5133 9.91034 17.1498 7.75415 16.9564C5.59796 16.763 3.5968 15.7542 2.15887 14.1359C0.720938 12.5176 -0.0454147 10.4117 0.0161353 8.2477C0.0776853 6.08373 0.962501 4.02476 2.49009 2.4908Z" fill="white"/>
</svg>
