<svg width="24" height="24" viewBox="0 0 24 24" fill="none" xmlns="http://www.w3.org/2000/svg">
<g id="Tether (USDT)">
<path id="Tether (USDT)_2" d="M23.6383 14.9029C22.0356 21.3315 15.5244 25.2438 9.09503 23.6407C2.66833 22.0381 -1.24401 15.5265 0.359382 9.09837C1.96137 2.66903 8.47253 -1.24361 14.8999 0.359081C21.3289 1.96177 25.241 8.47405 23.6381 14.903L23.6382 14.9029H23.6383Z" fill="#50AF95"/>
<path id="Tether (USDT)_3" fill-rule="evenodd" clip-rule="evenodd" d="M13.5184 13.3608C13.4336 13.3672 12.9952 13.3934 12.0173 13.3934C11.2395 13.3934 10.6872 13.37 10.4935 13.3608C7.48765 13.2286 5.24405 12.7054 5.24405 12.0789C5.24405 11.4524 7.48765 10.9299 10.4935 10.7955V12.8397C10.6901 12.8539 11.2529 12.8871 12.0307 12.8871C12.9641 12.8871 13.4314 12.8482 13.5156 12.8404V10.7969C16.5151 10.9306 18.7537 11.4538 18.7537 12.0789C18.7537 12.704 16.5158 13.2272 13.5156 13.3601L13.5184 13.3608ZM13.5184 10.5855V8.75627H17.7044V5.9668H6.30751V8.75627H10.4928V10.5848C7.09097 10.7411 4.53271 11.4149 4.53271 12.2224C4.53271 13.0299 7.09097 13.7031 10.4928 13.86V19.7218H13.5177V13.8579C16.9117 13.7017 19.4658 13.0285 19.4658 12.2217C19.4658 11.4149 16.9139 10.7418 13.5177 10.5848L13.5184 10.5855Z" fill="white"/>
</g>
</svg>
