<svg width="21" height="21" viewBox="0 0 21 21" fill="none" xmlns="http://www.w3.org/2000/svg">
<path d="M15 0.5C12.24 0.5 10 2.74 10 5.5C10 8.26 12.24 10.5 15 10.5C17.76 10.5 20 8.26 20 5.5C20 2.74 17.76 0.5 15 0.5ZM15 8.5C13.34 8.5 12 7.16 12 5.5C12 3.84 13.34 2.5 15 2.5C16.66 2.5 18 3.84 18 5.5C18 7.16 16.66 8.5 15 8.5ZM18 14.5H16C16 13.3 15.25 12.22 14.13 11.8L7.97 9.5H0V20.5H6V19.06L13 21L21 18.5V17.5C21 15.84 19.66 14.5 18 14.5ZM4 18.5H2V11.5H4V18.5ZM12.97 18.91L6 17V11.5H7.61L13.43 13.67C13.77 13.8 14 14.13 14 14.5C14 14.5 12 14.45 11.7 14.35L9.32 13.56L8.69 15.46L11.07 16.25C11.58 16.42 12.11 16.5 12.65 16.5H18C18.39 16.5 18.74 16.74 18.9 17.07L12.97 18.91Z" fill="#7F8EA3"/>
</svg>
