<svg width="24" height="25" viewBox="0 0 24 25" fill="none" xmlns="http://www.w3.org/2000/svg">
<path d="M21 8.5C21 6.843 17.866 5.5 14 5.5C10.134 5.5 7 6.843 7 8.5M21 8.5V12.5C21 13.52 19.814 14.42 18 14.962C16.866 15.302 15.487 15.5 14 15.5C12.513 15.5 11.134 15.301 10 14.962C8.187 14.42 7 13.52 7 12.5V8.5M21 8.5C21 9.52 19.814 10.42 18 10.962C16.866 11.302 15.487 11.5 14 11.5C12.513 11.5 11.134 11.301 10 10.962C8.187 10.42 7 9.52 7 8.5" stroke="#7F8EA3" stroke-width="2" stroke-linecap="round" stroke-linejoin="round"/>
<path d="M3 12.5001V16.5001C3 17.5201 4.187 18.4201 6 18.9621C7.134 19.3021 8.513 19.5001 10 19.5001C11.487 19.5001 12.866 19.3011 14 18.9621C15.813 18.4201 17 17.5201 17 16.5001V15.5001M3 12.5001C3 11.3031 4.635 10.2701 7 9.78906M3 12.5001C3 13.5201 4.187 14.4201 6 14.9621C7.134 15.3021 8.513 15.5001 10 15.5001C10.695 15.5001 11.366 15.4571 12 15.3761" stroke="#7F8EA3" stroke-width="2" stroke-linecap="round" stroke-linejoin="round"/>
</svg>
