<svg width="20" height="21" viewBox="0 0 20 21" fill="none" xmlns="http://www.w3.org/2000/svg">
<g clip-path="url(#clip0_287_1115)">
<path d="M19.8175 0.68342C19.904 0.770085 19.9632 0.880262 19.9876 1.00027C20.0121 1.12027 20.0007 1.24481 19.955 1.35842L12.6812 19.5422C12.6171 19.7023 12.5101 19.8417 12.3719 19.9449C12.2337 20.0481 12.0697 20.1112 11.898 20.1272C11.7262 20.1432 11.5534 20.1116 11.3985 20.0357C11.2436 19.9598 11.1126 19.8427 11.02 19.6972L7.04748 13.4534L0.803726 9.48092C0.657873 9.3884 0.540415 9.25738 0.464313 9.10233C0.388211 8.94728 0.356423 8.77421 0.372457 8.60224C0.388491 8.43026 0.451723 8.26605 0.555177 8.12774C0.65863 7.98943 0.798283 7.88238 0.958726 7.81842L19.1425 0.54717C19.2561 0.501435 19.3806 0.490085 19.5006 0.514531C19.6206 0.538976 19.7308 0.598139 19.8175 0.68467V0.68342ZM8.29498 13.0884L11.7462 18.5109L17.6625 3.72092L8.29498 13.0884ZM16.7787 2.83717L1.98873 8.75342L7.41248 12.2034L16.7787 2.83717Z" fill="#676E76"/>
</g>
<defs>
<clipPath id="clip0_287_1115">
<rect width="20" height="20" fill="white" transform="translate(0 0.5)"/>
</clipPath>
</defs>
</svg>
