<svg width="24" height="24" viewBox="0 0 24 24" fill="none" xmlns="http://www.w3.org/2000/svg">
<circle cx="12" cy="12" r="12" fill="#E84142"/>
<path fill-rule="evenodd" clip-rule="evenodd" d="M12.718 3.56202C12.3023 2.84391 11.6408 2.84391 11.2251 3.56202L3.67549 16.8565C3.25974 17.5841 3.59989 18.1604 4.43139 18.1604H8.22037C8.98572 18.1132 9.67549 17.7069 10.0912 17.0644L14.655 9.15572C14.9857 8.47541 14.9857 7.67226 14.655 6.99194L13.2944 4.60139L12.718 3.56202ZM17.7356 12.3118C17.3198 11.5937 16.649 11.5937 16.2332 12.3118L13.597 16.8567C13.1907 17.5748 13.5309 18.1606 14.3529 18.1606H19.5687C20.4002 18.1606 20.7403 17.5748 20.3246 16.8567L17.7356 12.3118Z" fill="white"/>
</svg>
