<svg width="24" height="24" viewBox="0 0 24 24" fill="none" xmlns="http://www.w3.org/2000/svg">
<path d="M23.6383 14.9029C22.0356 21.3315 15.5244 25.2438 9.09503 23.6407C2.66833 22.0381 -1.24401 15.5265 0.359382 9.09837C1.96137 2.66903 8.47253 -1.24361 14.8999 0.359081C21.3289 1.96177 25.241 8.47405 23.6381 14.903L23.6382 14.9029H23.6383Z" fill="#F3BA2F"/>
<path fill-rule="evenodd" clip-rule="evenodd" d="M12 7.616L8.89264 10.7233L8.8927 10.7232L7.08477 8.9152L12 4L16.9168 8.91667L15.1088 10.7247L12 7.616ZM5.80806 10.1918L4 12.0001L5.80794 13.8078L7.616 11.9997L5.80806 10.1918ZM8.89266 13.2769L12 16.384L15.1087 13.2754L16.9177 15.0824L16.9168 15.0834L12 20L7.08479 15.0848L7.08223 15.0822L8.89266 13.2769ZM18.192 10.1926L16.384 12.0006L18.192 13.8086L20 12.0005L18.192 10.1926Z" fill="white"/>
<path d="M13.8334 11.9992H13.8341L11.9996 10.1646L10.6437 11.5201L10.4879 11.676L10.1666 11.9973L10.1641 11.9998L10.1666 12.0024L11.9996 13.8357L13.8343 12.0011L13.8352 12.0001L13.8335 11.9992" fill="white"/>
</svg>
