<svg width="24" height="24" viewBox="0 0 24 24" fill="none" xmlns="http://www.w3.org/2000/svg">
<circle cx="12" cy="12" r="12" fill="#E7EFF3"/>
<path fill-rule="evenodd" clip-rule="evenodd" d="M5 13.4736C5 16.5256 7.47432 18.9999 10.5263 18.9999C13.5783 18.9999 16.0526 16.5256 16.0526 13.4736C16.0526 10.4216 13.5783 7.94727 10.5263 7.94727C7.47432 7.94727 5 10.4216 5 13.4736ZM14.5789 13.4737C14.5789 15.7123 12.7648 17.5264 10.5263 17.5264C8.28774 17.5264 6.47363 15.7123 6.47363 13.4737C6.47363 11.2352 8.28774 9.42109 10.5263 9.42109C12.7648 9.42109 14.5789 11.2352 14.5789 13.4737Z" fill="#FBCC5C"/>
<path fill-rule="evenodd" clip-rule="evenodd" d="M7.94727 10.5263C7.94727 13.5783 10.4216 16.0526 13.4736 16.0526C16.5256 16.0526 18.9999 13.5783 18.9999 10.5263C18.9999 7.47432 16.5256 5 13.4736 5C10.4216 5 7.94727 7.47432 7.94727 10.5263ZM17.5264 10.5264C17.5264 12.7649 15.7123 14.579 13.4737 14.579C11.2352 14.579 9.42109 12.7649 9.42109 10.5264C9.42109 8.28784 11.2352 6.47373 13.4737 6.47373C15.7123 6.47373 17.5264 8.28784 17.5264 10.5264Z" fill="#35D07F"/>
<path fill-rule="evenodd" clip-rule="evenodd" d="M7.94727 10.3435C8.41295 9.96032 8.95674 9.68621 9.54032 9.54032C9.68621 8.95527 9.96032 8.41148 10.3435 7.94727C9.66853 7.96937 9.00095 8.11527 8.37758 8.37758C8.11379 9.00095 7.9679 9.66706 7.94727 10.3435ZM14.4596 14.4596C14.3137 15.0447 14.0396 15.5884 13.6564 16.0527C14.3329 16.032 14.999 15.8861 15.6223 15.6238C15.8861 14.999 16.032 14.3329 16.0527 13.6564C15.587 14.0396 15.0432 14.3137 14.4596 14.4596Z" fill="#5EA33B"/>
</svg>
