<svg width="24" height="24" viewBox="0 0 24 24" fill="none" xmlns="http://www.w3.org/2000/svg">
<circle cx="12" cy="12" r="12" fill="#EDF0F4"/>
<path fill-rule="evenodd" clip-rule="evenodd" d="M4.60059 7.66962L12.0006 3.40039L19.4006 7.66962V16.2081L12.0006 20.4773L4.60059 16.2081V7.66962ZM9.07923 7.0915H14.9073L15.6043 10.0562H8.39707L9.07923 7.0915ZM10.5621 14.029L10.7549 12.1761L10.1172 10.5158H13.8839L13.2611 12.1761L13.439 14.029H11.9857H10.5621ZM14.922 17.142H13.8691L12.6086 15.9857V15.3928L13.9136 14.1476V12.176L15.619 11.0643L17.5617 12.5318L14.922 17.142ZM10.1617 17.1568L11.4222 15.9858V15.3928L10.1172 14.1476V12.1761L8.39697 11.0791L6.43945 12.5318L9.09396 17.1568H10.1617Z" fill="#03316C"/>
</svg>
