<svg width="24" height="24" viewBox="0 0 24 24" fill="none" xmlns="http://www.w3.org/2000/svg">
<path fill-rule="evenodd" clip-rule="evenodd" d="M12 24C5.4 24 0 18.6001 0 11.9402C0.06 5.34038 5.4 -0.0595036 12.06 0.000495204C18.66 0.060494 24 5.40038 24 12.1202C23.94 18.6601 18.6 24 12 24Z" fill="black"/>
<path fill-rule="evenodd" clip-rule="evenodd" d="M8.16859 9.152L11.9126 4L15.6246 9.12L17.2246 16.768L11.9126 20L6.60059 16.768L8.16859 9.152ZM8.64865 10.624L7.46465 16.416L11.3366 18.784L8.64865 10.624ZM9.03262 9.31204L11.9126 5.34404L14.7926 9.31204L11.9126 18.016L9.03262 9.31204ZM15.1446 10.624L12.4566 18.784L16.3286 16.416L15.1446 10.624Z" fill="white"/>
</svg>
