<svg width="24" height="24" viewBox="0 0 24 24" fill="none" xmlns="http://www.w3.org/2000/svg">
<circle cx="12" cy="12" r="12" fill="#13B5EC"/>
<path fill-rule="evenodd" clip-rule="evenodd" d="M13.0006 9.60088L15.7006 8.01797V11.1838L13.0006 9.60088ZM15.7006 16.3849L12.1006 18.4954L8.50059 16.3849V12.6914L12.1006 14.802L15.7006 12.6914V16.3849ZM8.50059 8.01797L11.2006 9.60088L8.50059 11.1838V8.01797ZM12.5506 10.3547L15.2506 11.9376L12.5506 13.5205V10.3547ZM11.6506 13.5205L8.95059 11.9376L11.6506 10.3547V13.5205ZM15.2506 7.26421L12.1006 9.07325L8.95059 7.26421L12.1006 5.37979L15.2506 7.26421ZM7.60059 6.96272V16.8371L12.1006 19.3999L16.6006 16.8371V6.96272L12.1006 4.3999L7.60059 6.96272Z" fill="white"/>
</svg>
