<svg width="24" height="24" viewBox="0 0 24 24" fill="none" xmlns="http://www.w3.org/2000/svg">
<circle cx="12" cy="12" r="12" fill="#EDF0F4"/>
<path d="M15.6005 9.58972C15.3446 9.44253 15.0157 9.44253 14.7232 9.58972L12.6762 10.804L11.2872 11.5767L9.27676 12.7909C9.02089 12.9381 8.69191 12.9381 8.39948 12.7909L6.82768 11.8342C6.5718 11.687 6.38903 11.3927 6.38903 11.0615V9.22176C6.38903 8.9274 6.53525 8.63304 6.82768 8.44906L8.39948 7.52918C8.65535 7.382 8.98433 7.382 9.27676 7.52918L10.8486 8.48586C11.1044 8.63304 11.2872 8.9274 11.2872 9.25856V10.4728L12.6762 9.66331V8.41227C12.6762 8.11791 12.53 7.82354 12.2376 7.63957L9.31332 5.91019C9.05744 5.76301 8.72846 5.76301 8.43603 5.91019L5.43864 7.67636C5.14621 7.82354 5 8.11791 5 8.41227V11.871C5 12.1654 5.14621 12.4597 5.43864 12.6437L8.39948 14.3731C8.65535 14.5203 8.98433 14.5203 9.27676 14.3731L11.2872 13.1957L12.6762 12.3862L14.6867 11.2087C14.9426 11.0615 15.2715 11.0615 15.564 11.2087L17.1358 12.1286C17.3916 12.2758 17.5744 12.5701 17.5744 12.9013V14.741C17.5744 15.0354 17.4282 15.3298 17.1358 15.5138L15.6005 16.4336C15.3446 16.5808 15.0157 16.5808 14.7232 16.4336L13.1514 15.5138C12.8956 15.3666 12.7128 15.0722 12.7128 14.741V13.5636L11.3238 14.3731V15.5873C11.3238 15.8817 11.47 16.1761 11.7624 16.36L14.7232 18.0894C14.9791 18.2366 15.3081 18.2366 15.6005 18.0894L18.5614 16.36C18.8172 16.2129 19 15.9185 19 15.5873V12.0918C19 11.7974 18.8538 11.5031 18.5614 11.3191L15.6005 9.58972Z" fill="#8247E5"/>
</svg>
