<svg width="24" height="24" viewBox="0 0 24 24" fill="none" xmlns="http://www.w3.org/2000/svg">
<path fill-rule="evenodd" clip-rule="evenodd" d="M12 24C5.4 24 0 18.6001 0 11.9402C0.06 5.34038 5.4 -0.0595036 12.06 0.000495204C18.66 0.060494 24 5.40038 24 12.1202C23.94 18.6601 18.6 24 12 24Z" fill="#FC070C"/>
<path fill-rule="evenodd" clip-rule="evenodd" d="M20.5498 9.46111C20.2223 9.15872 19.8426 8.79006 19.4469 8.40589C18.8911 7.86629 18.3039 7.29612 17.7856 6.83612L17.7331 6.79937C17.6458 6.72922 17.5473 6.67421 17.4418 6.63662L17.0418 6.562L17.0418 6.56199L17.0417 6.56198L17.0417 6.56197C14.2816 6.04697 5.33558 4.37774 5.15155 4.40013C5.09712 4.40775 5.0451 4.42748 4.9993 4.45788L4.94943 4.49725C4.88802 4.55962 4.84137 4.63497 4.81293 4.71775L4.7998 4.75187V4.93825V4.96712C5.40717 6.65835 6.9849 10.4352 8.44171 13.9226L8.44175 13.9227L8.44177 13.9228L8.44179 13.9228L8.44182 13.9229C9.67347 16.8713 10.8187 19.6127 11.2179 20.7118L11.2181 20.7123C11.2706 20.8751 11.3703 21.1843 11.5565 21.2001H11.5985C11.6983 21.2001 12.1235 20.6383 12.1235 20.6383C12.1235 20.6383 19.7255 11.4194 20.4946 10.4376C20.5942 10.3167 20.6821 10.1866 20.7571 10.0491C20.7961 9.83029 20.7174 9.60707 20.5498 9.46111ZM14.074 10.5349L17.3185 7.84424L19.2216 9.59773L14.074 10.5349ZM7.22813 5.78096L12.8141 10.3589L16.266 7.44783L7.22813 5.78096ZM13.318 11.5586L19.0353 10.6372L12.499 18.5122L13.318 11.5586ZM12.3469 11.2252L6.46953 6.2377L11.4964 18.5174L12.3469 11.2252Z" fill="white"/>
</svg>
