<svg width="24" height="25" viewBox="0 0 24 25" fill="none" xmlns="http://www.w3.org/2000/svg">
<path d="M23.6383 15.4029C22.0356 21.8315 15.5244 25.7438 9.09503 24.1407C2.66833 22.5381 -1.24401 16.0265 0.359382 9.59837C1.96137 3.16903 8.47253 -0.743606 14.8999 0.859081C21.3289 2.46177 25.241 8.97405 23.6381 15.403L23.6382 15.4029H23.6383Z" fill="#50AF95"/>
<path fill-rule="evenodd" clip-rule="evenodd" d="M13.5184 13.8604C13.4336 13.8667 12.9952 13.8929 12.0173 13.8929C11.2395 13.8929 10.6872 13.8695 10.4935 13.8604C7.48765 13.7281 5.24405 13.2049 5.24405 12.5784C5.24405 11.9519 7.48765 11.4294 10.4935 11.295V13.3392C10.6901 13.3534 11.2529 13.3866 12.0307 13.3866C12.9641 13.3866 13.4314 13.3477 13.5156 13.3399V11.2964C16.5151 11.4301 18.7537 11.9533 18.7537 12.5784C18.7537 13.2035 16.5158 13.7267 13.5156 13.8596L13.5184 13.8604ZM13.5184 11.085V9.25578H17.7044V6.46631H6.30751V9.25578H10.4928V11.0843C7.09097 11.2406 4.53271 11.9144 4.53271 12.7219C4.53271 13.5294 7.09097 14.2026 10.4928 14.3596V20.2213H13.5177V14.3574C16.9117 14.2012 19.4658 13.528 19.4658 12.7212C19.4658 11.9144 16.9139 11.2413 13.5177 11.0843L13.5184 11.085Z" fill="white"/>
</svg>
