<svg width="24" height="24" viewBox="0 0 24 24" fill="none" xmlns="http://www.w3.org/2000/svg">
<path d="M23.6383 14.9029C22.0356 21.3315 15.5244 25.2438 9.09503 23.6407C2.66833 22.0381 -1.24401 15.5265 0.359382 9.09837C1.96137 2.66903 8.47253 -1.24361 14.8999 0.359081C21.3289 1.96177 25.241 8.47405 23.6381 14.903L23.6382 14.9029H23.6383Z" fill="#2C7DF7"/>
<path d="M13.7902 20C12.6485 20 11.8151 19.725 11.2902 19.175C10.8039 18.7094 10.5216 18.0702 10.5052 17.3972C10.4993 17.1927 10.5467 16.9902 10.6427 16.8096C10.7323 16.6536 10.8617 16.5241 11.0177 16.4344C11.3852 16.2511 11.8176 16.2511 12.1852 16.4344C12.3409 16.5237 12.4697 16.6533 12.558 16.8096C12.6568 16.9894 12.706 17.1922 12.7004 17.3972C12.7106 17.6421 12.6404 17.8835 12.5004 18.0847C12.3838 18.2489 12.2171 18.3709 12.0253 18.4324C12.2128 18.6712 12.4782 18.8367 12.7753 18.9C13.1075 18.9965 13.4517 19.0461 13.7977 19.0474C14.2558 19.0514 14.7045 18.9172 15.0853 18.6624C15.4802 18.3834 15.7748 17.9845 15.9252 17.525C16.116 16.978 16.2091 16.4017 16.2002 15.8225C16.2156 15.2186 16.1137 14.6175 15.9002 14.0525C15.7396 13.6005 15.4348 13.214 15.0327 12.9525C14.659 12.716 14.2252 12.5919 13.783 12.595C13.3976 12.6276 13.026 12.7538 12.7004 12.9625L11.8977 13.365V12.9625L15.5052 8.12303H10.5052V13.145C10.4911 13.5074 10.587 13.8656 10.7802 14.1725C10.9704 14.4445 11.289 14.5972 11.6202 14.575C11.921 14.5689 12.212 14.4663 12.4501 14.2825C12.7201 14.0846 12.955 13.8429 13.1452 13.5674C13.1623 13.5191 13.1938 13.4773 13.2356 13.4475C13.2691 13.4186 13.3118 13.4026 13.3561 13.4025C13.443 13.4105 13.5251 13.4454 13.5911 13.5025C13.6747 13.5958 13.7202 13.7172 13.7186 13.8424C13.7089 13.9267 13.6939 14.0102 13.6736 14.0924C13.496 14.5224 13.1982 14.892 12.816 15.1571C12.461 15.3973 12.0418 15.5247 11.6132 15.5225C10.5306 15.5225 9.78069 15.3092 9.36333 14.8825C8.92997 14.4061 8.70652 13.7754 8.74332 13.1324V8.12303H6.2002V7.18995H8.75517V5.06245L8.17021 4.47709V4H9.86764L10.5052 4.33004V7.18995L17.1101 7.16986L17.7677 7.82985L13.7177 11.8995C13.9623 11.8011 14.22 11.7388 14.4826 11.7145C15.0024 11.7373 15.5095 11.8821 15.9629 12.1371C16.488 12.3867 16.9305 12.7816 17.238 13.275C17.5135 13.6926 17.7085 14.1581 17.813 14.6475C17.8989 15.0334 17.945 15.4272 17.9505 15.8226C17.9532 16.5772 17.7821 17.3222 17.4505 18C17.136 18.6564 16.6068 19.1856 15.9504 19.5001C15.2786 19.8312 14.5392 20.0023 13.7902 20Z" fill="white"/>
</svg>
