<svg width="17" height="16" viewBox="0 0 17 16" fill="none" xmlns="http://www.w3.org/2000/svg">
<g id="CheckSquareFill" clip-path="url(#clip0_304_2780)">
<path id="Vector" d="M2.19043 0C1.66 0 1.15129 0.210714 0.776216 0.585786C0.401143 0.960859 0.19043 1.46957 0.19043 2L0.19043 14C0.19043 14.5304 0.401143 15.0391 0.776216 15.4142C1.15129 15.7893 1.66 16 2.19043 16H14.1904C14.7209 16 15.2296 15.7893 15.6046 15.4142C15.9797 15.0391 16.1904 14.5304 16.1904 14V2C16.1904 1.46957 15.9797 0.960859 15.6046 0.585786C15.2296 0.210714 14.7209 0 14.1904 0L2.19043 0ZM12.2204 4.97C12.3593 5.10875 12.4383 5.29644 12.4403 5.49275C12.4424 5.68907 12.3674 5.87837 12.2314 6.02L8.23943 11.01C8.17082 11.0839 8.08801 11.1432 7.99596 11.1844C7.90391 11.2255 7.8045 11.2477 7.70368 11.2496C7.60286 11.2514 7.5027 11.233 7.40919 11.1952C7.31567 11.1575 7.23073 11.1013 7.15943 11.03L4.51443 8.384C4.44074 8.31534 4.38164 8.23254 4.34065 8.14054C4.29966 8.04854 4.27761 7.94923 4.27584 7.84852C4.27406 7.74782 4.29259 7.64779 4.33031 7.5544C4.36803 7.46101 4.42417 7.37618 4.49539 7.30496C4.56661 7.23374 4.65144 7.1776 4.74483 7.13988C4.83822 7.10216 4.93825 7.08363 5.03895 7.08541C5.13966 7.08718 5.23897 7.10923 5.33097 7.15022C5.42297 7.19121 5.50577 7.25031 5.57443 7.324L7.66843 9.417L11.1414 4.992C11.2099 4.91797 11.2926 4.85851 11.3846 4.81717C11.4766 4.77583 11.5759 4.75347 11.6768 4.75141C11.7776 4.74936 11.8778 4.76766 11.9714 4.80522C12.0649 4.84277 12.15 4.89882 12.2214 4.97H12.2204Z" fill="white"/>
</g>
<defs>
<clipPath id="clip0_304_2780">
<rect width="16" height="16" fill="white" transform="translate(0.19043)"/>
</clipPath>
</defs>
</svg>
