<svg width="25" height="25" viewBox="0 0 25 25" fill="none" xmlns="http://www.w3.org/2000/svg">
<g id="GeoFill">
<path id="Vector" fill-rule="evenodd" clip-rule="evenodd" d="M6.19043 6.24991C6.19054 5.04714 6.52381 3.86994 7.15027 2.85958C7.77673 1.84922 8.66975 1.04861 9.72219 0.553826C10.7746 0.0590365 11.9418 -0.108916 13.0836 0.0701227C14.2254 0.249161 15.2933 0.767584 16.1593 1.56318C17.0252 2.35879 17.6524 3.39777 17.9656 4.55546C18.2787 5.71316 18.2645 6.94038 17.9247 8.08989C17.5849 9.23939 16.9339 10.2623 16.0498 11.036C15.1657 11.8096 14.086 12.3011 12.9404 12.4515V21.0937C12.9404 21.3009 12.8614 21.4996 12.7208 21.6461C12.5801 21.7926 12.3893 21.8749 12.1904 21.8749C11.9915 21.8749 11.8008 21.7926 11.6601 21.6461C11.5194 21.4996 11.4404 21.3009 11.4404 21.0937V12.453C9.98988 12.2627 8.65596 11.5272 7.68925 10.3847C6.72254 9.24215 6.18956 7.77285 6.19043 6.24991ZM9.92993 19.6468C9.96246 19.8511 9.91579 20.0605 9.80019 20.2289C9.68459 20.3974 9.50951 20.5112 9.31343 20.5452C8.24543 20.7296 7.39343 21.0062 6.83093 21.3155C6.624 21.4185 6.43612 21.5587 6.27593 21.7296C6.2396 21.7708 6.21065 21.8184 6.19043 21.8702V21.8749L6.19343 21.8874L6.21743 21.939C6.27623 22.0297 6.34985 22.1091 6.43493 22.1733C6.68243 22.3765 7.08743 22.5952 7.65443 22.7905C8.78093 23.1812 10.3844 23.4374 12.1904 23.4374C13.9964 23.4374 15.5999 23.1827 16.7264 22.7905C17.2934 22.5937 17.6984 22.3765 17.9459 22.1733C18.0315 22.1092 18.1057 22.0299 18.1649 21.939L18.1874 21.8874L18.1904 21.8749V21.8687C18.1702 21.8168 18.1413 21.7692 18.1049 21.728C17.9446 21.5576 17.7567 21.418 17.5499 21.3155C16.9859 21.0062 16.1354 20.7296 15.0674 20.5452C14.9679 20.5312 14.8722 20.4965 14.7858 20.4432C14.6994 20.3899 14.6242 20.319 14.5646 20.2349C14.505 20.1507 14.4622 20.055 14.4388 19.9533C14.4154 19.8516 14.4118 19.746 14.4283 19.6429C14.4448 19.5397 14.481 19.441 14.5347 19.3527C14.5885 19.2644 14.6587 19.1882 14.7413 19.1287C14.8238 19.0692 14.917 19.0275 15.0153 19.0062C15.1135 18.9849 15.2149 18.9843 15.3134 19.0046C16.4684 19.203 17.4914 19.5171 18.2489 19.9327C18.9404 20.3124 19.6904 20.9374 19.6904 21.8749C19.6904 22.5405 19.3004 23.0499 18.8744 23.4015C18.4394 23.7577 17.8544 24.0468 17.2004 24.2733C15.8834 24.7312 14.1119 24.9999 12.1904 24.9999C10.2689 24.9999 8.49743 24.7312 7.18043 24.2733C6.52643 24.0468 5.94143 23.7577 5.50643 23.4015C5.08043 23.0499 4.69043 22.5405 4.69043 21.8749C4.69043 20.939 5.44043 20.3124 6.13193 19.9327C6.88943 19.5171 7.91243 19.203 9.06743 19.0046C9.26355 18.9707 9.46455 19.0193 9.62628 19.1397C9.78801 19.2602 9.89722 19.4425 9.92993 19.6468Z" fill="#1D283A"/>
</g>
</svg>
