<svg width="38" height="30" viewBox="0 0 38 30" fill="none" xmlns="http://www.w3.org/2000/svg">
<g id="Group 2298">
<rect id="Rectangle 149" width="38" height="30" rx="2" fill="#575757"/>
<g id="Mask group">
<mask id="mask0_332_1764" style="mask-type:alpha" maskUnits="userSpaceOnUse" x="0" y="0" width="38" height="30">
<rect id="Rectangle 151" width="38" height="30" rx="2" fill="#3A3C42"/>
</mask>
<g mask="url(#mask0_332_1764)">
<g id="Group 134">
<line id="Line 72" y1="-0.75" x2="134.861" y2="-0.75" transform="matrix(-0.802677 0.596414 -0.802677 -0.596414 73.0957 -78.8398)" stroke="white" stroke-opacity="0.2" stroke-width="1.5"/>
<line id="Line 73" y1="-0.75" x2="134.861" y2="-0.75" transform="matrix(-0.802677 0.596414 -0.802677 -0.596414 75.6914 -64.1328)" stroke="white" stroke-opacity="0.2" stroke-width="1.5"/>
<line id="Line 74" y1="-0.75" x2="134.861" y2="-0.75" transform="matrix(-0.802677 0.596414 -0.802677 -0.596414 78.2939 -49.4238)" stroke="white" stroke-opacity="0.2" stroke-width="1.5"/>
<line id="Line 75" y1="-0.75" x2="134.861" y2="-0.75" transform="matrix(-0.802677 0.596414 -0.802677 -0.596414 80.8936 -34.707)" stroke="white" stroke-opacity="0.2" stroke-width="1.5"/>
<line id="Line 76" y1="-0.75" x2="134.861" y2="-0.75" transform="matrix(-0.802677 0.596414 -0.802677 -0.596414 83.4893 -19.998)" stroke="white" stroke-opacity="0.2" stroke-width="1.5"/>
<line id="Line 77" y1="-0.75" x2="134.861" y2="-0.75" transform="matrix(-0.802677 0.596414 -0.802677 -0.596414 86.0918 -5.29102)" stroke="white" stroke-opacity="0.2" stroke-width="1.5"/>
<line id="Line 78" y1="-0.75" x2="134.861" y2="-0.75" transform="matrix(-0.802677 0.596414 -0.802677 -0.596414 88.6846 9.42383)" stroke="white" stroke-opacity="0.2" stroke-width="1.5"/>
<line id="Line 79" y1="-0.75" x2="134.861" y2="-0.75" transform="matrix(-0.802677 0.596414 -0.802677 -0.596414 103.071 16.3008)" stroke="white" stroke-opacity="0.2" stroke-width="1.5"/>
</g>
</g>
</g>
</g>
</svg>
