<svg width="23" height="22" viewBox="0 0 23 22" fill="none" xmlns="http://www.w3.org/2000/svg">
<g id="Socials">
<path id="LinkedIn" d="M20.8928 0.441895C21.7111 0.441895 22.4331 1.16394 22.4331 2.03039V20.4665C22.4331 21.333 21.7111 22.0069 20.8928 22.0069H2.36038C1.54207 22.0069 0.868164 21.333 0.868164 20.4665V2.03039C0.868164 1.16394 1.54207 0.441895 2.36038 0.441895H20.8928ZM7.36654 18.9262V8.67317H4.18956V18.9262H7.36654ZM5.77805 7.22909C6.78891 7.22909 7.60722 6.41077 7.60722 5.39991C7.60722 4.38906 6.78891 3.52261 5.77805 3.52261C4.71905 3.52261 3.90074 4.38906 3.90074 5.39991C3.90074 6.41077 4.71905 7.22909 5.77805 7.22909ZM19.3524 18.9262V13.2942C19.3524 10.5505 18.7267 8.38435 15.5015 8.38435C13.9612 8.38435 12.9022 9.2508 12.469 10.0691H12.4208V8.67317H9.38826V18.9262H12.5652V13.8719C12.5652 12.5241 12.8059 11.2244 14.4907 11.2244C16.1273 11.2244 16.1273 12.7647 16.1273 13.92V18.9262H19.3524Z" fill="#7F8EA3"/>
</g>
</svg>
