<svg width="37" height="36" viewBox="0 0 37 36" fill="none" xmlns="http://www.w3.org/2000/svg">
<path fill-rule="evenodd" clip-rule="evenodd" d="M36.0137 18C36.0137 27.9411 27.9548 36 18.0137 36C8.07255 36 0.0136719 27.9411 0.0136719 18C0.0136719 8.05888 8.07255 0 18.0137 0C27.9548 0 36.0137 8.05888 36.0137 18ZM18.6587 13.2884C16.9079 14.0166 13.4089 15.5238 8.16151 17.81C7.30942 18.1488 6.86306 18.4803 6.82242 18.8045C6.75375 19.3522 7.43974 19.5679 8.37388 19.8617C8.50094 19.9016 8.6326 19.943 8.76758 19.9869C9.68663 20.2857 10.9229 20.6352 11.5656 20.649C12.1486 20.6616 12.7993 20.4213 13.5176 19.928C18.4204 16.6185 20.9512 14.9457 21.1101 14.9097C21.2222 14.8842 21.3776 14.8522 21.4828 14.9458C21.5881 15.0393 21.5777 15.2165 21.5666 15.264C21.4986 15.5537 18.8059 18.0571 17.4124 19.3527C16.9779 19.7565 16.6698 20.043 16.6068 20.1085C16.4657 20.255 16.3219 20.3937 16.1836 20.5269C15.3298 21.35 14.6895 21.9672 16.2191 22.9752C16.9541 23.4596 17.5423 23.8601 18.1291 24.2597C18.7699 24.6961 19.4091 25.1314 20.2361 25.6735C20.4468 25.8116 20.648 25.9551 20.844 26.0948C21.5898 26.6265 22.2598 27.1041 23.0876 27.0279C23.5685 26.9837 24.0654 26.5314 24.3177 25.1825C24.914 21.9947 26.0861 15.0877 26.357 12.2415C26.3807 11.9921 26.3509 11.673 26.3269 11.5329C26.3029 11.3928 26.2528 11.1932 26.0707 11.0454C25.8551 10.8704 25.5221 10.8335 25.3732 10.8361C24.6962 10.8481 23.6575 11.2092 18.6587 13.2884Z" fill="white"/>
</svg>
