<svg width="22" height="22" viewBox="0 0 22 22" fill="none" xmlns="http://www.w3.org/2000/svg">
<g id="Socials">
<path id="Telegram" d="M10.9885 0.441895C16.9015 0.441895 21.771 5.31141 21.771 11.2244C21.771 17.1808 16.9015 22.0069 10.9885 22.0069C5.03209 22.0069 0.206055 17.1808 0.206055 11.2244C0.206055 5.31141 5.03209 0.441895 10.9885 0.441895ZM15.945 7.78964C15.9885 7.65921 15.9885 7.52877 15.945 7.35486C15.945 7.26791 15.8581 7.13747 15.8146 7.094C15.6841 6.96356 15.4668 6.96356 15.3798 6.96356C14.9885 6.96356 14.3363 7.18095 11.3364 8.44181C10.2929 8.87659 8.20597 9.74614 5.07557 11.1374C4.55383 11.3548 4.29297 11.5287 4.24949 11.7461C4.20601 12.0939 4.77122 12.2244 5.42339 12.4418C5.9886 12.6157 6.72772 12.8331 7.11902 12.8331C7.46684 12.8331 7.85814 12.7026 8.29292 12.3983C11.2059 10.3983 12.7277 9.39832 12.8146 9.39832C12.9016 9.39832 12.9885 9.35484 13.032 9.39832C13.119 9.48527 13.119 9.57223 13.0755 9.61571C13.032 9.8331 10.2929 12.3548 10.119 12.5287C9.5103 13.1374 8.81466 13.5287 9.9016 14.2244C10.8146 14.833 11.3364 15.2243 12.2929 15.833C12.9016 16.2243 13.3798 16.7026 13.9885 16.6591C14.2929 16.6156 14.5972 16.3548 14.7276 15.5287C15.1189 13.6591 15.8146 9.48527 15.945 7.78964Z" fill="#7F8EA3"/>
</g>
</svg>
