<svg width="22" height="22" viewBox="0 0 22 22" fill="none" xmlns="http://www.w3.org/2000/svg">
<path id="Vector" d="M15.5578 13.1557C15.644 12.4441 15.7087 11.7324 15.7087 10.9992C15.7087 10.266 15.644 9.55437 15.5578 8.84273H19.2022C19.3747 9.5328 19.4826 10.2552 19.4826 10.9992C19.4826 11.7432 19.3747 12.4656 19.2022 13.1557H15.5578ZM13.6493 19.1507C14.2962 17.9539 14.7922 16.66 15.1373 15.3122H18.3181C17.283 17.0913 15.6332 18.4714 13.6493 19.1507ZM13.3797 13.1557H8.33355C8.22572 12.4441 8.16103 11.7324 8.16103 10.9992C8.16103 10.266 8.22572 9.54359 8.33355 8.84273H13.3797C13.4768 9.54359 13.5522 10.266 13.5522 10.9992C13.5522 11.7324 13.4768 12.4441 13.3797 13.1557ZM10.8566 19.582C9.96169 18.2881 9.23927 16.8541 8.79719 15.3122H12.9161C12.474 16.8541 11.7516 18.2881 10.8566 19.582ZM6.54367 6.68625H3.3952C4.41953 4.89636 6.08002 3.51622 8.05321 2.84771C7.40626 4.04455 6.92105 5.33844 6.54367 6.68625ZM3.3952 15.3122H6.54367C6.92105 16.66 7.40626 17.9539 8.05321 19.1507C6.08002 18.4714 4.41953 17.0913 3.3952 15.3122ZM2.51104 13.1557C2.33853 12.4656 2.2307 11.7432 2.2307 10.9992C2.2307 10.2552 2.33853 9.5328 2.51104 8.84273H6.1555C6.06924 9.55437 6.00455 10.266 6.00455 10.9992C6.00455 11.7324 6.06924 12.4441 6.1555 13.1557H2.51104ZM10.8566 2.40563C11.7516 3.69952 12.474 5.14436 12.9161 6.68625H8.79719C9.23927 5.14436 9.96169 3.69952 10.8566 2.40563ZM18.3181 6.68625H15.1373C14.7922 5.33844 14.2962 4.04455 13.6493 2.84771C15.6332 3.527 17.283 4.89636 18.3181 6.68625ZM10.8566 0.216797C4.89396 0.216797 0.0742188 5.06888 0.0742188 10.9992C0.0742188 13.8589 1.21022 16.6014 3.23231 18.6235C4.23355 19.6248 5.4222 20.419 6.73038 20.9609C8.03856 21.5027 9.44067 21.7816 10.8566 21.7816C13.7163 21.7816 16.4589 20.6456 18.481 18.6235C20.503 16.6014 21.639 13.8589 21.639 10.9992C21.639 9.58324 21.3602 8.18114 20.8183 6.87296C20.2764 5.56478 19.4822 4.37613 18.481 3.37489C17.4797 2.37365 16.2911 1.57943 14.9829 1.03756C13.6747 0.495692 12.2726 0.216797 10.8566 0.216797Z" fill="#7F8EA3"/>
</svg>
